<?xml version="1.0" encoding="UTF-8"?>
<svg id="Layer_2" data-name="Layer 2" xmlns="http://www.w3.org/2000/svg" viewBox="0 0 108.62 106.24">
  <defs>
    <style>
      .cls-1 {
        fill: #fff;
        stroke-width: 0px;
      }
    </style>
  </defs>
  <g id="Layer_1-2" data-name="Layer 1">
    <g>
      <path class="cls-1" d="M36.19,23.86v45.12h18.1v-.02h0v-33.58l-9.28-11.52h-8.82ZM53.29,54.99c0,4.42-3.58,8-8,8s-8-3.58-8-8,3.58-8,8-8,8,3.58,8,8Z"/>
      <polygon class="cls-1" points="24.28 46.52 30.19 39.19 30.19 39.19 30.19 25.9 15.24 25.9 15.24 35.29 24.28 46.52"/>
      <polygon class="cls-1" points="43.46 21.94 36.19 12.92 36.19 21.94 43.46 21.94"/>
      <polygon class="cls-1" points="71.24 68.96 71.24 60.18 60.29 46.58 60.29 68.96 71.24 68.96"/>
      <path class="cls-1" d="M60.79,21.36c3.59,0,6.5-1.85,6.5-4.12s-2.91-4.12-6.5-4.12c-.17,0-.33,0-.5.02v8.22c.17,0,.33.02.5.02Z"/>
      <polygon class="cls-1" points="33.24 42.86 27.19 50.37 24.19 54.09 21.19 50.37 18.19 46.64 18.19 68.96 33.24 68.96 33.24 42.86"/>
      <path class="cls-1" d="M0,6.94l3.75,99.3,73.37-2.54L108.62,0,0,6.94ZM74.29,68.99h0v2.98h-17.05v10.02h12.05v6h-12.05v5h17.05v6h-20v-22.47l-15.64,19.42h15.64v3.05h-18.1s-6,0-6,0h0s-18.01,0-18.01,0v-6h10.55v-21.02h-10.55v-3h.01v-29.77h0s0,0,0,0V9.19h3.05v10.71h14.95v-10.71h6l18.1,22.47V8.99h6v.03c.33-.02.66-.03,1-.03,7.18,0,13,3.69,13,8.25,0,4.14-4.8,7.55-11.05,8.15l10.96,13.6h-3l-10.9-13.53s0,0,0,0v13.63l10.95,13.59v-13.69h3.05v30Z"/>
      <polygon class="cls-1" points="33.24 74.99 33.24 71.96 25.68 71.96 25.68 92.99 35.02 92.99 49.52 74.99 33.24 74.99"/>
    </g>
  </g>
</svg>